# xmcd
# 
# Track frame offsets:
#     150
#     13785
#     29948
#     46957
#     59826
#     80878
#     95346
#     111085
#     125512
#     141772
#     157579
#     178368
#     194824
#     209050
#     227246
#     243133
# 
# Disc length: 3469
# 
# Revision: 0
# Processed by: cddbd v1.5.2PL0 Copyright (c) Steve Scherf et al.
# Submitted via: fre:ac v1.0.17
# 
DISCID=f30d8b10
DTITLE=Various Artist - Country Heat 2015
DYEAR=2014
DGENRE=Country
TTITLE0=Brad Paisley - River Bank
TTITLE1=Blake Shelton - Sure Be Cool If You Did
TTITLE2=Jerrod Nieman - Drink To That All Night
TTITLE3=Miranda Lambert with Carrie Underwood - Somethin' Bad
TTITLE4=Zac Brown Band - Sweet Annie
TTITLE5=Chris Young - Who I Am With You
TTITLE6=Lee Brice - Parking Lot Party
TTITLE7=Jake Owen - Beachin'
TTITLE8=Brett Kissel - Tough People Do
TTITLE9=Gord Bamford - Unreal
TTITLE10=Hunter Hayes - Invisible
TTITLE11=Dan and Shay - 19 You and Me
TTITLE12=Tyler Farr - Whiskey in My Water
TTITLE13=Paul Brandt - Forever Summer
TTITLE14=Kira Isabella - Quarterback
TTITLE15=Cole Swindell - Hope You Get Lonely Tonight
EXTD=
EXTT0=
EXTT1=
EXTT2=
EXTT3=
EXTT4=
EXTT5=
EXTT6=
EXTT7=
EXTT8=
EXTT9=
EXTT10=
EXTT11=
EXTT12=
EXTT13=
EXTT14=
EXTT15=
PLAYORDER=
